<?xml version="1.0" encoding="utf-8"?>
<!-- Generator: Adobe Illustrator 22.0.0, SVG Export Plug-In . SVG Version: 6.00 Build 0)  -->
<svg version="1.2" baseProfile="tiny" id="Layer_1" xmlns="http://www.w3.org/2000/svg" xmlns:xlink="http://www.w3.org/1999/xlink"
	 x="0px" y="0px" viewBox="0 0 328 128" xml:space="preserve">
<g>
	
		<path id="XMLID_1_" fill="none" stroke="#000000" stroke-width="2" stroke-linecap="round" stroke-linejoin="round" stroke-miterlimit="10" d="
		M247.94,59.21h-21.98v-6.86V14.8h57.93v37.56v6.86H261.9 M291.9,86.46h-73.95v6.98v6.98h73.95V86.46z M291.9,86.46l-17.56-16.95
		H261.9 M247.94,69.51H235.5l-17.56,16.95 M261.9,59.21h-13.96v10.3h13.96V59.21z M267.85,21.4c-4.09,1.25-8.44,1.92-12.93,1.92
		c-4.49,0-8.84-0.67-12.93-1.92l-7.4,19.33c6.39,2.11,13.23,3.24,20.33,3.24c7.11,0,13.94-1.14,20.33-3.24L267.85,21.4z
		 M237.21,77.55c-2.75,0-4.98,0.9-4.98,2.01c0,1.11,2.23,2.01,4.98,2.01c2.76,0,4.99-0.91,4.99-2.01
		C242.19,78.45,239.96,77.55,237.21,77.55z M267.64,79.57c0,1.11,2.24,2.01,4.99,2.01c2.76,0,4.99-0.91,4.99-2.01
		c0-1.12-2.23-2.01-4.99-2.01C269.88,77.55,267.64,78.45,267.64,79.57z M249.2,77.21h11.45 M238.78,73.01h32.29 M249.2,81.83h11.45
		 M217.95,93.44h-3.68c-2.28,0-4.13,1.85-4.13,4.13v11.5c0,2.28,1.85,4.13,4.13,4.13h82.54c2.28,0,4.13-1.85,4.13-4.13V75.33
		 M225.96,52.36h57.93 M310.14,40.05c0-2.76-4.12-4.99-9.2-4.99c-5.09,0-9.21,2.23-9.21,4.99c0,0.31,0.12,0.67,0.3,1.03
		c0.46,0.98,1.33,1.98,1.33,1.98c1.76,2.69,2.54,5.38,3.06,8.07c0.49,2.7,0.68,5.38,0.74,8.08c0.06,2.69,0.05,5.37,0.39,8.07
		c0.42,2.69,0.39,5.38,3.39,8.07c2.98-2.69,2.96-5.38,3.38-8.07c0.34-2.7,0.33-5.38,0.4-8.07c0.06-2.7,0.25-5.38,0.74-8.08
		c0.52-2.69,1.3-5.38,3.05-8.07c0,0,0.87-1,1.33-1.98C310.02,40.72,310.14,40.36,310.14,40.05z M292.02,41.08
		c2.25,0.78,5.41,1.27,8.91,1.27c3.49,0,6.65-0.49,8.9-1.27"/>
	<path fill="none" stroke="#000000" stroke-width="2" stroke-linecap="round" stroke-linejoin="round" stroke-miterlimit="10" d="
		M160.14,44v40 M140.14,64h40"/>
	<path fill="none" stroke="#000000" stroke-width="2" stroke-linecap="round" stroke-linejoin="round" stroke-miterlimit="10" d="
		M88.59,67.62l-9.21-10.7 M58.89,51.36h15.69l4.79,5.56 M44.45,43.69c3.21,10.33,10.24,21.26,10.24,21.26 M51.78,31.45l-14.22,0.69
		c-2.52,0.12-4.49,2.2-4.49,4.71v2.12c0,2.61,2.11,4.72,4.72,4.72h14.22c2.61,0,4.72-2.11,4.72-4.72v-2.8
		C56.73,33.47,54.48,31.32,51.78,31.45z M29.24,43.69c1.29,4.15,3.19,8.39,5.01,11.99 M27.75,31.88 M27.75,31.88l-5.39,0.26
		c-2.52,0.12-4.49,2.19-4.49,4.71v2.12c0,2.6,2.11,4.72,4.72,4.72h6.66 M58.89,105.23V87.07 M70.01,87.07v18.16 M70.01,105.23H58.89
		 M33.07,114h54.24 M75.87,107.52c-0.8-1.41-2.29-2.29-3.92-2.29H54.93c-1.52,0-2.94,0.77-3.77,2.05L46.79,114h32.74L75.87,107.52z
		 M85.84,71.15l12.2-15.66c7.39-9.49,13.04-20.09,16.78-31.52c1.31-3.99-0.87-8.29-4.86-9.59c-3.99-1.31-8.29,0.87-9.59,4.86
		c-3.19,9.75-8.01,18.81-14.32,26.9l-9.92,12.73H33.07c-4.2,0-7.6,3.4-7.6,7.6s3.4,7.6,7.6,7.6h46.77
		C82.19,74.08,84.4,73,85.84,71.15z M72.28,87.07L72.28,87.07c0.73,0,1.41-0.33,1.86-0.91l11.7-15.01 M40.01,74.08L51.1,85.16
		c1.17,1.17,2.75,1.83,4.41,1.83h0"/>
</g>
<g>
</g>
<g>
</g>
<g>
</g>
<g>
</g>
<g>
</g>
<g>
</g>
<g>
</g>
<g>
</g>
<g>
</g>
<g>
</g>
<g>
</g>
</svg>
