<?xml version="1.0" encoding="utf-8"?>
<svg xmlns="http://www.w3.org/2000/svg" viewBox="0 0 128 128">
<g>
	<path fill="none" stroke="#000000" stroke-width="2" stroke-linecap="round" stroke-linejoin="round" stroke-miterlimit="10" d="
		M96.2,104.98V114H22.59V23.02h9.21 M105.41,14H31.79v90.98h73.61V14z M41.16,42.4c-1.47,0-2.65,1.19-2.65,2.65s1.19,2.65,2.65,2.65
		s2.65-1.19,2.65-2.65S42.63,42.4,41.16,42.4z M50.53,45.05H98.7 M41.16,54.52c-1.47,0-2.65,1.19-2.65,2.65s1.19,2.65,2.65,2.65
		s2.65-1.19,2.65-2.65S42.63,54.52,41.16,54.52z M50.53,57.18H98.7 M41.16,66.65c-1.47,0-2.65,1.19-2.65,2.65
		c0,1.47,1.19,2.65,2.65,2.65s2.65-1.19,2.65-2.65C43.81,67.84,42.63,66.65,41.16,66.65z M50.53,69.3H98.7 M41.16,78.78
		c-1.47,0-2.65,1.19-2.65,2.65c0,1.47,1.19,2.65,2.65,2.65s2.65-1.19,2.65-2.65C43.81,79.97,42.63,78.78,41.16,78.78z M50.53,81.43
		H98.7 M41.16,90.9c-1.47,0-2.65,1.19-2.65,2.65c0,1.47,1.19,2.65,2.65,2.65s2.65-1.19,2.65-2.65C43.81,92.09,42.63,90.9,41.16,90.9
		z M50.53,93.56H98.7 M42.25,26.31h52.71 M48.03,33.27h41.14"/>
</g>
</svg>
